# xmcd CD database file
#
# Track frame offsets:
#	150
#	20250
#	32247
#	54813
#	73679
#	94270
#	130778
#	158182
#	181664
#	198338
#
# Disc length: 3053 seconds
#
# Revision: 1
# Processed by: cddbd v1.5.2PL0 Copyright (c) Steve Scherf et al.
# Submitted via: CDex 1.70beta2
#
DISCID=7a0beb0a
DTITLE=Beth Hart and Joe Bonamassa - Don't Explain
DYEAR=2012
DGENRE=Blues
TTITLE0=Sinner's Prayer
TTITLE1=Chocolate Jesus
TTITLE2=Your Heart Is As Black As Night
TTITLE3=For My Friends
TTITLE4=Don't Explain
TTITLE5=I'd Rather Go Blind
TTITLE6=Something's Got A Hold On Me
TTITLE7=I'll Take Care Of You
TTITLE8=Well, Well
TTITLE9=Ain't No Way
EXTD=YEAR: 2012
EXTT0=
EXTT1=
EXTT2=
EXTT3=
EXTT4=
EXTT5=
EXTT6=
EXTT7=
EXTT8=
EXTT9=
PLAYORDER=
